Coordinates
version=1
nRows=16
nColumns=38
inDegrees=yes

Units are S.I. units (second, meters, Newtons, ...)
Angles are in degrees.

endheader
time	first_body_tilt	first_body_list	first_body_rotation	first_body_tx	first_body_ty	first_body_tz	hip_flexion_r	hip_adduction_r	hip_rotation_r	knee_angle_r	ankle_angle_r	subtalar_angle_r	mtp_angle_r	hip_flexion_l	hip_adduction_l	hip_rotation_l	knee_angle_l	ankle_angle_l	subtalar_angle_l	mtp_angle_l	lumbar_extension	lumbar_bending	lumbar_rotation	arm_flex_r	arm_add_r	arm_rot_r	elbow_flex_r	pro_sup_r	wrist_flex_r	wrist_dev_r	arm_flex_l	arm_add_l	arm_rot_l	elbow_flex_l	pro_sup_l	wrist_flex_l	wrist_dev_l
0.000000	24.474126	-4.079407	15.615296	0.580698	0.037353	-0.068678	-4.090463	6.815454	3.691794	-7.782252	16.721680	0.000000	0.000000	34.276870	-9.597579	-16.334067	-8.659238	3.534378	0.000000	0.000000	-0.862163	3.367814	11.051573	11.870922	-12.847568	10.774019	49.770175	107.561871	0.000000	0.000000	-4.500790	-7.890277	-24.458536	24.001489	114.170054	0.000000	0.000000	
0.005000	23.562014	-4.018404	15.368189	0.581527	0.036237	-0.067949	-4.225456	6.611879	3.816270	-8.151251	17.008862	0.000000	0.000000	34.397307	-9.470506	-16.210461	-9.394661	3.250218	0.000000	0.000000	-0.867528	3.168150	10.977982	11.654901	-12.723193	10.814186	49.523591	107.516137	0.000000	0.000000	-4.283699	-7.894366	-24.365379	23.857469	114.187257	0.000000	0.000000	
0.010000	22.660639	-3.961251	15.121424	0.582387	0.035179	-0.067219	-4.364786	6.407951	3.931134	-8.525575	17.284307	0.000000	0.000000	34.511716	-9.339988	-16.085934	-10.130160	2.977880	0.000000	0.000000	-0.877147	2.970383	10.904543	11.431187	-12.600287	10.849369	49.275809	107.471459	0.000000	0.000000	-4.071411	-7.898659	-24.254039	23.725593	114.207499	0.000000	0.000000	
0.015000	21.784149	-3.910299	14.875586	0.583314	0.034180	-0.066460	-4.511119	6.204306	4.027648	-8.905585	17.538447	0.000000	0.000000	34.614172	-9.202747	-15.959416	-10.858327	2.727044	0.000000	0.000000	-0.894026	2.776804	10.831227	11.196049	-12.480709	10.876218	49.027638	107.427264	0.000000	0.000000	-3.868063	-7.902779	-24.113111	23.614164	114.234169	0.000000	0.000000	
0.020000	20.941176	-3.866575	14.629079	0.584333	0.033240	-0.065656	-4.665249	6.000864	4.099354	-9.292172	17.763332	0.000000	0.000000	34.699539	-9.055715	-15.829158	-11.570640	2.501419	0.000000	0.000000	-0.919763	2.588804	10.758172	10.946682	-12.365862	10.892409	48.778878	107.382653	0.000000	0.000000	-3.676617	-7.906348	-23.934620	23.528933	114.269975	0.000000	0.000000	
0.025000	20.133247	-3.829666	14.377881	0.585456	0.032361	-0.064804	-4.825778	5.796697	4.142825	-9.686946	17.953089	0.000000	0.000000	34.763832	-8.896299	-15.692816	-12.257865	2.297415	0.000000	0.000000	-0.954238	2.406654	10.685799	10.681329	-12.256550	10.896862	48.528124	107.336448	0.000000	0.000000	-3.498614	-7.909032	-23.714760	23.472635	114.316696	0.000000	0.000000	
0.030000	19.354674	-3.797933	14.116104	0.586685	0.031547	-0.063922	-4.989237	5.590139	4.157941	-10.092203	18.104084	0.000000	0.000000	34.804501	-8.722741	-15.547899	-12.910920	2.104484	0.000000	0.000000	-0.995625	2.229521	10.614899	10.399270	-12.152913	10.889708	48.272878	107.287378	0.000000	0.000000	-3.334239	-7.910617	-23.453857	23.445112	114.375033	0.000000	0.000000	
0.035000	18.593856	-3.768984	13.837230	0.588008	0.030799	-0.063038	-5.150631	5.379104	4.147677	-10.510726	18.214785	0.000000	0.000000	34.820610	-8.534498	-15.392469	-13.522128	1.907035	0.000000	0.000000	-1.040727	2.055719	10.546679	10.100668	-12.054456	10.872013	48.009914	107.234398	0.000000	0.000000	-3.182647	-7.911104	-23.155521	23.443977	114.444545	0.000000	0.000000	
0.040000	17.835648	-3.740296	13.535727	0.589408	0.030120	-0.062191	-5.304283	5.161526	4.117454	-10.945507	18.285392	0.000000	0.000000	34.812901	-8.332550	-15.225908	-14.086655	1.687512	0.000000	0.000000	-1.085572	1.883106	10.482730	9.786331	-11.960156	10.845298	47.735786	107.177091	0.000000	0.000000	-3.042478	-7.910824	-22.825087	23.465639	114.523682	0.000000	0.000000	
0.045000	17.064277	-3.709807	13.208618	0.590859	0.029513	-0.061420	-5.444760	4.935817	4.074181	-11.399473	18.317348	0.000000	0.000000	34.783726	-8.119531	-15.049515	-14.603827	1.429976	0.000000	0.000000	-1.126131	1.709553	10.424917	9.457419	-11.868618	10.810974	47.447354	107.116061	0.000000	0.000000	-2.912400	-7.910542	-22.467708	23.506456	114.609884	0.000000	0.000000	
0.050000	16.266223	-3.676353	12.856635	0.592334	0.028979	-0.060760	-5.567715	4.701230	4.025153	-11.875286	18.312832	0.000000	0.000000	34.736840	-7.899632	-14.866762	-15.077999	1.123439	0.000000	0.000000	-1.159039	1.533381	10.375186	9.115187	-11.778271	10.769833	47.142210	107.053223	0.000000	0.000000	-2.791566	-7.911521	-22.086547	23.563719	114.699749	0.000000	0.000000	
0.055000	15.432554	-3.639839	12.484657	0.593807	0.028518	-0.060235	-5.670438	4.458081	3.977006	-12.375272	18.274318	0.000000	0.000000	34.677054	-7.678234	-14.683071	-15.518666	0.764296	0.000000	0.000000	-1.182163	1.353698	10.335310	8.760792	-11.687576	10.721726	46.818943	106.991887	0.000000	0.000000	-2.679839	-7.915474	-21.681603	23.636230	114.789237	0.000000	0.000000	
0.060000	14.560361	-3.601137	12.101319	0.595256	0.028130	-0.059857	-5.752037	4.207761	3.934859	-12.901455	18.204231	0.000000	0.000000	34.609749	-7.461328	-14.505130	-15.939688	0.357397	0.000000	0.000000	-1.194905	1.170580	10.306604	8.395187	-11.595228	10.665532	46.477216	106.936587	0.000000	0.000000	-2.577742	-7.924398	-21.249595	23.724327	114.873907	0.000000	0.000000	
0.065000	13.653137	-3.561744	11.717866	0.596662	0.027815	-0.059625	-5.813201	3.952579	3.901781	-13.455707	18.104697	0.000000	0.000000	34.540280	-7.254780	-14.339863	-16.357627	-0.084401	0.000000	0.000000	-1.198203	0.985092	10.289652	8.019122	-11.500326	10.599452	46.117654	106.892619	0.000000	0.000000	-2.486125	-7.940253	-20.785082	23.829347	114.949174	0.000000	0.000000	
0.070000	12.720158	-3.523330	11.346484	0.598013	0.027568	-0.059527	-5.855647	3.695438	3.878594	-14.039932	17.977326	0.000000	0.000000	34.473328	-7.063555	-14.193269	-16.789431	-0.542059	0.000000	0.000000	-1.194226	0.799133	10.284085	7.633207	-11.402495	10.521575	45.741604	106.865345	0.000000	0.000000	-2.405625	-7.964542	-20.282668	23.952649	115.010599	0.000000	0.000000	
0.075000	11.775078	-3.487292	10.998445	0.599301	0.027387	-0.059540	-5.881347	3.439424	3.864012	-14.656254	17.822987	0.000000	0.000000	34.412283	-6.891021	-14.069364	-17.249830	-0.993144	0.000000	0.000000	-1.185838	0.615151	10.288477	7.238017	-11.301932	10.430560	45.350800	106.859326	0.000000	0.000000	-2.336041	-7.997859	-19.739763	24.094423	115.054236	0.000000	0.000000	
